<?xml version="1.0" encoding="UTF-8"?>
<svg id="Camada_2" xmlns="http://www.w3.org/2000/svg" width="1em" height="1em" viewBox="0 0 102 120">
    <g id="Icons_Export">
        <path id="RegisterCustomer" fill="currentColor"
            d="M102,102v12c0,3.31-2.69,6-6,6s-6-2.69-6-6v-12c0-9.93-8.07-18-18-18H30c-9.93,0-18,8.07-18,18v12c0,3.31-2.69,6-6,6s-6-2.69-6-6v-12c0-16.54,13.46-30,30-30h42c16.54,0,30,13.46,30,30ZM81,30c0,16.54-13.46,30-30,30s-30-13.46-30-30S34.46,0,51,0s30,13.46,30,30ZM69,30c0-9.93-8.07-18-18-18s-18,8.07-18,18,8.07,18,18,18,18-8.07,18-18Z" />
    </g>
</svg>