<svg id="Camada_2" data-name="Camada 2" xmlns="http://www.w3.org/2000/svg" viewBox="0 0 150 150" width="100%" height="100%" preserveAspectRatio="xMidYMid meet">
  <g id="Logos">
    <g id="logo-positive">
      <path id="g-right" d="M91.43,127.02c-13.42-3.32-26.12-12.07-34.35-25.9-10.19-16.27-13.99-36.87-9.51-55.75C53.89,10.87,91.19-10.97,122.21,6c9.14,4.93,15.06,13.33,19.8,22.51.13.24.2.6.14.86-.47,2.06-.97,4.12-1.5,6.17-.06.24-.37.41-.57.62-2.13-2.91-2.64-6.82-4.3-10.02-7.7-15.44-27.02-24.81-43.21-18.74-36.1,14.35-33.11,85.9-5.91,108.05,2.62,2.18,5.24,3.79,7.82,4.9-1.04,2.21-2.08,4.43-3.04,6.68ZM150.11,61.42c0-.81-.19-1.01-.96-1.01-11.8,0-18.02-.06-29.82-.06-9.88,0-11.91.43-14,1.85-6.81,4.14-8.15,15.88.24,19.46-7.12-18.6,19.84-20.35,24.08,2.28,4.76,21.84-15.42,59.14-40.25,51.86-1.01,2.14-3.03,2.64-3.97,4.82,24.65,5.56,52.28-10.24,60.07-36.77,4.47-11.27,4.72-35.9,4.61-42.42Z" fill="#f2f2f2" stroke="#253340" stroke-miterlimit="10" stroke-width=".25"/>
      <path id="g-left" d="M67.42,82.74c11.67.08,23.34.01,35.01.01.77,0,.96.2.95,1-.24,10.17.71,20.46-1.63,30.44-11.88,46.1-67.92,46.54-90.38,8.83C1.29,106.92-2.47,86.55,1.96,67.87,8.21,33.75,45.1,12.14,75.79,28.93c9.04,4.88,14.89,13.19,19.58,22.26.13.24.2.59.14.85-.47,2.04-.96,4.07-1.48,6.1-.06.24-.37.41-.56.61-2.11-2.88-2.61-6.74-4.26-9.91-7.62-15.27-26.72-24.54-42.74-18.54-35.7,14.2-32.75,84.96-5.85,106.87,23.01,19.13,45.94-5.7,42.53-31.16-.73-4.29-2.47-8.36-5.12-11.76-7.84-9.79-28.8-8.5-22.11,8.11-1.85-.85-3.24-2.37-4.19-4.03-.63-1.38-.75-3-1.07-4.58,1.07-9.02,9.05-11.27,16.76-11.02Z" fill="#f2f2f2" stroke="#253340" stroke-miterlimit="10" stroke-width=".25"/>
    </g>
  </g>
</svg>