<?xml version="1.0" encoding="UTF-8"?>
<svg id="Camada_2" xmlns="http://www.w3.org/2000/svg" width="1em" height="1em" viewBox="0 0 120 120">
    <g id="Icons_Export">
        <path id="LogOut" fill="currentColor"
            d="M102,120h-24c-3.31,0-6-2.69-6-6s2.69-6,6-6h24c3.31,0,6-2.69,6-6V18c0-3.31-2.69-6-6-6h-24c-3.31,0-6-2.69-6-6s2.69-6,6-6h24c9.93,0,18,8.07,18,18v84c0,9.93-8.07,18-18,18ZM40.24,94.24c2.34-2.34,2.34-6.14,0-8.48l-25.76-25.76,25.76-25.76c2.34-2.34,2.34-6.14,0-8.48-2.34-2.34-6.14-2.34-8.48,0L1.76,55.76c-2.34,2.34-2.34,6.14,0,8.48l30,30c1.17,1.17,2.71,1.76,4.24,1.76s3.07-.59,4.24-1.76ZM84,60c0-3.31-2.69-6-6-6H6c-3.31,0-6,2.69-6,6s2.69,6,6,6h72c3.31,0,6-2.69,6-6Z" />
    </g>
</svg>