<?xml version="1.0" encoding="UTF-8"?>
<svg id="Camada_2" xmlns="http://www.w3.org/2000/svg" width="1em" height="1em" viewBox="0 0 125.22 120">
    <g id="Icons_Export">
        <path id="RegisterSale" fill="currentColor"
            d="M46.96,120c-5.75,0-10.43-4.68-10.43-10.43s4.68-10.43,10.43-10.43,10.43,4.68,10.43,10.43-4.68,10.43-10.43,10.43ZM46.96,109.57h0,0ZM46.96,109.57h0,0ZM104.35,120c-5.75,0-10.43-4.68-10.43-10.43s4.68-10.43,10.43-10.43,10.43,4.68,10.43,10.43-4.68,10.43-10.43,10.43ZM104.35,109.57h0,0ZM104.35,109.57h0,0ZM101.42,88.7c-.08,0-.17,0-.25,0h-50.62c-7.56.1-14.12-5.17-15.6-12.6l-8.71-43.53c-.04-.15-.07-.31-.09-.46l-4.34-21.67H5.22c-2.88,0-5.22-2.34-5.22-5.22S2.34,0,5.22,0h20.87c2.49,0,4.63,1.76,5.12,4.19l4.38,21.89h84.42c1.56,0,3.03.69,4.02,1.89.99,1.2,1.4,2.78,1.1,4.3l-8.35,43.77c-1.47,7.39-7.89,12.64-15.35,12.64ZM50.5,78.26h50.71c.07,0,.13,0,.2,0,2.49,0,4.63-1.75,5.12-4.2l7.16-37.54H37.67l7.51,37.53c.49,2.46,2.63,4.21,5.12,4.21.07,0,.13,0,.2,0Z" />
    </g>
</svg>