<?xml version="1.0" encoding="UTF-8"?>
<svg id="Camada_2" xmlns="http://www.w3.org/2000/svg" width="1em" height="1em" viewBox="0 0 108.71 120">
    <g id="Icons_Export">
        <path id="RegisterProduct" fill="currentColor"
            d="M107.01,30.81c-.12-.39-.28-.78-.49-1.15-.26-.44-.57-.83-.92-1.17-1.33-1.83-3.04-3.41-5.06-4.58L62.51,2.18c-5.03-2.9-11.28-2.9-16.28-.01L8.15,23.92c-2.02,1.16-3.72,2.74-5.04,4.57-.35.34-.66.72-.91,1.16-.21.37-.37.75-.49,1.15C.61,33.02,0,35.49,0,38.03v43.49c0,5.8,3.13,11.21,8.17,14.12l38.03,21.73c1.73,1,3.61,1.65,5.54,1.96.78.43,1.67.67,2.62.67s1.84-.24,2.61-.67c1.92-.31,3.79-.95,5.52-1.95l38.07-21.75c5.02-2.9,8.15-8.3,8.15-14.11h0v-43.49c0-2.54-.6-5.01-1.7-7.22ZM51.64,11.59c.84-.48,1.77-.72,2.71-.72s1.89.25,2.75.74l35.1,20.06-37.84,21.89L16.52,31.66,51.64,11.59ZM13.59,86.21c-1.67-.97-2.72-2.77-2.72-4.7v-40.56l38.05,22.01v43.44l-35.33-20.19ZM95.14,86.2l-35.35,20.2v-43.44l38.05-22.01v40.56c0,1.93-1.04,3.73-2.7,4.69Z" />
    </g>
</svg>