<?xml version="1.0" encoding="UTF-8"?>
<svg id="Camada_2" xmlns="http://www.w3.org/2000/svg" width="1em" height="1em"
    viewBox="0 0 146.67 120">
    <g id="Icons_Export">
        <path id="ShowSales" fill="currentColor"
            d="M140,106.67h-20v-20c0-3.68-2.98-6.67-6.67-6.67s-6.67,2.98-6.67,6.67v20h-26.67v-60c0-3.68-2.98-6.67-6.67-6.67s-6.67,2.98-6.67,6.67v60h-26.67V6.67c0-3.68-2.98-6.67-6.67-6.67s-6.67,2.98-6.67,6.67v100H6.67c-3.68,0-6.67,2.98-6.67,6.67s2.98,6.67,6.67,6.67h133.33c3.68,0,6.67-2.98,6.67-6.67s-2.98-6.67-6.67-6.67Z" />
    </g>
</svg>