<?xml version="1.0" encoding="UTF-8"?>
<svg id="Camada_2" xmlns="http://www.w3.org/2000/svg" width="1em" height="1em" viewBox="0 0 120 120">
    <g id="Icons_Export">
        <path id="ShowProducts" fill="currentColor"
            d="M116.99,64.88c2.69-1.35,3.79-4.62,2.44-7.32-1.35-2.69-4.62-3.79-7.32-2.44l-46.65,23.33v-15.08l51.53-25.77c1.85-.92,3.01-2.81,3.01-4.88s-1.17-3.96-3.01-4.88L62.44.58c-1.54-.77-3.34-.77-4.88,0L3.02,27.85C1.17,28.77,0,30.66,0,32.73s1.17,3.96,3.01,4.88l51.53,25.77v15.08L7.9,55.12c-2.7-1.35-5.97-.25-7.32,2.44-1.35,2.69-.25,5.97,2.44,7.32l51.53,25.77v15.08L7.9,82.39c-2.7-1.35-5.97-.26-7.32,2.44s-.25,5.97,2.44,7.32l54.55,27.27s.06.03.1.04c.13.06.27.12.41.17.06.02.11.04.17.06.14.05.28.09.42.12.05.01.11.03.16.04.15.03.3.06.45.08.05,0,.1.02.15.02.2.02.4.03.6.03s.4-.01.6-.03c.05,0,.1-.02.15-.02.15-.02.3-.05.45-.08.06-.01.11-.03.16-.04.14-.04.28-.08.42-.12.06-.02.11-.04.17-.06.14-.05.27-.11.41-.17.03-.01.06-.03.1-.04l54.55-27.27c2.69-1.35,3.79-4.62,2.44-7.32-1.35-2.69-4.62-3.79-7.32-2.44l-46.65,23.33v-15.08l51.53-25.77ZM17.65,32.73L60,11.55l42.35,21.17-36.89,18.45v-18.45c0-3.01-2.44-5.45-5.45-5.45s-5.45,2.44-5.45,5.45v18.45l-36.89-18.45Z" />
    </g>
</svg>