<?xml version="1.0" encoding="UTF-8"?>
<svg id="Camada_2" xmlns="http://www.w3.org/2000/svg" width="1em" height="1em" viewBox="0 0 144 120">
    <g id="Icons_Export">
        <path id="ShowCustomers" fill="currentColor"
            d="M108,102v12c0,3.31-2.69,6-6,6s-6-2.69-6-6v-12c0-9.93-8.07-18-18-18H30c-9.93,0-18,8.07-18,18v12c0,3.31-2.69,6-6,6s-6-2.69-6-6v-12c0-16.54,13.46-30,30-30h48c16.54,0,30,13.46,30,30ZM84,30c0,16.54-13.46,30-30,30s-30-13.46-30-30S37.46,0,54,0s30,13.46,30,30ZM72,30c0-9.93-8.07-18-18-18s-18,8.07-18,18,8.07,18,18,18,18-8.07,18-18ZM121.5,72.97c-3.21-.82-6.48,1.1-7.31,4.31-.83,3.21,1.1,6.48,4.31,7.31,7.94,2.05,13.49,9.21,13.5,17.41v12c0,3.31,2.69,6,6,6s6-2.69,6-6v-12c-.01-13.67-9.26-25.61-22.5-29.03ZM115.86,14.74c-4.08-6.89-10.61-11.79-18.37-13.77-3.21-.82-6.48,1.11-7.3,4.32-.82,3.21,1.11,6.48,4.32,7.3,4.66,1.19,8.57,4.13,11.02,8.26,2.45,4.14,3.14,8.98,1.95,13.64-1.63,6.37-6.6,11.34-12.97,12.97-3.21.82-5.15,4.09-4.32,7.3.69,2.71,3.13,4.51,5.81,4.51.49,0,.99-.06,1.49-.19,10.62-2.72,18.9-11,21.62-21.62,1.99-7.76.83-15.84-3.25-22.73Z" />
    </g>
</svg>